<svg width="44" height="38" viewBox="0 0 44 38" fill="none" xmlns="http://www.w3.org/2000/svg">
<mask id="mask0_406_2547" style="mask-type:alpha" maskUnits="userSpaceOnUse" x="0" y="0" width="44" height="38">
<rect width="44" height="38" fill="#D9D9D9"/>
</mask>
<g mask="url(#mask0_406_2547)">
<g opacity="0.4">
<rect x="22" y="-4.29289" width="32.9411" height="32.9411" rx="4.5" transform="rotate(45 22 -4.29289)" stroke="#D6BFA0"/>
<g filter="url(#filter0_i_406_2547)">
<rect x="22" y="1" width="25.4558" height="25.4558" rx="3" transform="rotate(45 22 1)" fill="#D6BFA0" fill-opacity="0.5"/>
</g>
<rect x="22" y="1" width="25.4558" height="25.4558" rx="3" transform="rotate(45 22 1)" stroke="#D6BFA0" stroke-width="2"/>
</g>
</g>
<path d="M30.9996 18.9998C30.9996 23.9704 26.9704 28.0001 21.9998 28.0001C17.0291 28.0001 13 23.9704 13 18.9998C13 14.0296 17.0291 10 21.9998 10C26.9704 10 30.9996 14.0296 30.9996 18.9998Z" fill="#F3DCBA"/>
<path d="M30.9998 18.9998C30.9998 23.9704 26.9707 28.0001 22 28.0001V10C26.9707 10 30.9998 14.0296 30.9998 18.9998Z" fill="#E5C79B"/>
<path d="M21.9996 12.2768C18.2925 12.2768 15.2764 15.293 15.2764 19.0001C15.2764 22.7077 18.2925 25.7234 21.9996 25.7234C25.7068 25.7234 28.7229 22.7077 28.7229 19.0001C28.7229 15.293 25.7068 12.2768 21.9996 12.2768ZM21.9996 24.3313C19.06 24.3313 16.6684 21.9397 16.6684 19.0001C16.6684 16.0605 19.06 13.6689 21.9996 13.6689C24.9393 13.6689 27.3309 16.0605 27.3309 19.0001C27.3309 21.9397 24.9393 24.3313 21.9996 24.3313Z" fill="white"/>
<path d="M28.7233 19.0001C28.7233 22.7077 25.7071 25.7234 22 25.7234V24.3313C24.9396 24.3313 27.3312 21.9397 27.3312 19.0001C27.3312 16.0605 24.9396 13.6689 22 13.6689V12.2768C25.7071 12.2768 28.7233 15.293 28.7233 19.0001Z" fill="#F7DFBC"/>
<defs>
<filter id="filter0_i_406_2547" x="4.24268" y="-0.757359" width="35.5146" height="37.5147" filterUnits="userSpaceOnUse" color-interpolation-filters="sRGB">
<feFlood flood-opacity="0" result="BackgroundImageFix"/>
<feBlend mode="normal" in="SourceGraphic" in2="BackgroundImageFix" result="shape"/>
<feColorMatrix in="SourceAlpha" type="matrix" values="0 0 0 0 0 0 0 0 0 0 0 0 0 0 0 0 0 0 127 0" result="hardAlpha"/>
<feOffset dy="-2"/>
<feGaussianBlur stdDeviation="3"/>
<feComposite in2="hardAlpha" operator="arithmetic" k2="-1" k3="1"/>
<feColorMatrix type="matrix" values="0 0 0 0 0 0 0 0 0 0 0 0 0 0 0 0 0 0 0.25 0"/>
<feBlend mode="normal" in2="shape" result="effect1_innerShadow_406_2547"/>
</filter>
</defs>
</svg>
