<svg xmlns="http://www.w3.org/2000/svg" version="1.1" xmlns:xlink="http://www.w3.org/1999/xlink" width="512" height="512" x="0" y="0" viewBox="0 0 409 409.6" style="enable-background:new 0 0 512 512" xml:space="preserve" class=""><g><path d="M180.582 175.594a6.793 6.793 0 0 1-5.375-2.614c-4.227-5.378-12.621-9.14-20.406-9.14h-29.453c-3.774 0-6.828-3.05-6.828-6.824s3.054-6.828 6.828-6.828H154.8c12.066 0 24.293 5.64 31.14 14.367a6.815 6.815 0 0 1-1.152 9.578 6.754 6.754 0 0 1-4.207 1.46zM142.02 211.625H7.125a6.818 6.818 0 0 1-6.824-6.824v-22.227c0-19.086 21.113-32.387 40.058-32.387h22.696a6.818 6.818 0 0 1 6.824 6.825 6.822 6.822 0 0 1-6.824 6.828H40.359c-13.324 0-26.406 9.281-26.406 18.734v15.399H142.02a6.825 6.825 0 0 1 6.828 6.828 6.822 6.822 0 0 1-6.828 6.824zM157.32 105.813a9.25 9.25 0 0 1-.566-.02 6.834 6.834 0 0 1-6.246-7.367l3.414-41.664c-.024-23.52-18.207-43.11-40.57-43.11H78.395c-22.364 0-40.547 19.59-40.547 43.668l3.39 41.106a6.834 6.834 0 0 1-6.246 7.367c-3.8.242-7.05-2.488-7.363-6.246l-3.414-41.668C24.19 25.71 48.508 0 78.395 0h34.957c29.886 0 54.203 25.71 54.203 57.32l-3.434 42.227a6.831 6.831 0 0 1-6.8 6.266zm0 0" fill="#ffffff" opacity="1" data-original="#000000" class=""></path><path d="M95.875 170.668c-19.703 0-37.574-7.29-47.816-19.5-12.426-14.813-20.454-35.406-20.454-52.469V71.188c0-11.61.262-18.32 5.668-21.301 4.82-2.672 9.38.199 13.387 2.722 5.34 3.368 13.406 8.446 26.578 8.446 10.633 0 23.422-3.246 35.79-6.395 19.992-5.078 37.238-9.46 47.66-1.351 4.945 3.847 7.453 9.859 7.453 17.879v27.515c0 17.059-8.028 37.652-20.446 52.465-10.246 12.21-28.12 19.5-47.82 19.5zM41.34 65.378a178.42 178.42 0 0 0-.078 5.81v27.511c0 13.828 6.93 31.387 17.258 43.696 7.558 9.02 21.882 14.617 37.355 14.617s29.793-5.598 37.36-14.617c10.32-12.31 17.253-29.868 17.253-43.696V71.188c0-3.59-.734-5.981-2.18-7.102-5.14-4.02-21.495.148-35.921 3.809-13.172 3.343-26.805 6.812-39.149 6.812-15.367 0-25.71-5.527-31.898-9.328zM340.527 409.602H178.902c-23.195 0-42.07-18.875-42.07-42.067v-35.422a6.822 6.822 0 0 1 6.828-6.824 6.822 6.822 0 0 1 6.828 6.824v35.422c0 15.668 12.746 28.41 28.41 28.41h161.63c15.663 0 28.41-12.746 28.41-28.41v-36.969c0-3.773 3.054-6.824 6.828-6.824s6.824 3.051 6.824 6.824v36.97c.004 23.19-18.871 42.066-42.063 42.066zm0 0" fill="#ffffff" opacity="1" data-original="#000000" class=""></path><path d="M340.527 382.293H178.902c-23.195 0-42.07-18.875-42.07-42.066v-134.32c0-23.192 18.875-42.067 42.066-42.067h161.63c23.19 0 42.062 18.875 42.062 42.066v134.32c.004 23.192-18.871 42.067-42.063 42.067zm-161.629-204.8c-15.668 0-28.41 12.75-28.41 28.413v134.32c0 15.669 12.746 28.41 28.41 28.41h161.63c15.663 0 28.41-12.745 28.41-28.41v-134.32c0-15.668-12.747-28.414-28.41-28.414zm0 0" fill="#ffffff" opacity="1" data-original="#000000" class=""></path><path d="M334.809 286.719H184.62a6.822 6.822 0 0 1-6.828-6.824v-20.48a6.825 6.825 0 0 1 6.828-6.83H334.81a6.822 6.822 0 0 1 6.824 6.83v20.48a6.818 6.818 0 0 1-6.824 6.824zm-143.364-13.653H327.98v-6.828H191.445zM334.809 238.934H184.62a6.825 6.825 0 0 1-6.828-6.829v-20.48a6.822 6.822 0 0 1 6.828-6.824H334.81a6.818 6.818 0 0 1 6.824 6.824v20.48a6.822 6.822 0 0 1-6.824 6.829zM191.445 225.28H327.98v-6.828H191.445zM334.809 334.508H184.62a6.825 6.825 0 0 1-6.828-6.828V307.2a6.822 6.822 0 0 1 6.828-6.825H334.81a6.818 6.818 0 0 1 6.824 6.824v20.48a6.822 6.822 0 0 1-6.824 6.829zm-143.364-13.656H327.98v-6.825H191.445zm0 0" fill="#ffffff" opacity="1" data-original="#000000" class=""></path></g></svg>