<svg xmlns="http://www.w3.org/2000/svg" version="1.1" xmlns:xlink="http://www.w3.org/1999/xlink" width="512" height="512" x="0" y="0" viewBox="0 0 32 32" style="enable-background:new 0 0 512 512" xml:space="preserve" class=""><g><path d="M16 2A14 14 0 0 0 6 25.8a14.26 14.26 0 0 0 2.16 1.79 14 14 0 0 0 15.68 0A14.26 14.26 0 0 0 26 25.8 14 14 0 0 0 16 2zm0 26a11.88 11.88 0 0 1-7.94-3 8 8 0 0 1 15.88 0A11.88 11.88 0 0 1 16 28zm9.6-4.8a10 10 0 0 0-19.2 0 12 12 0 1 1 19.2 0zM16 5a5 5 0 1 0 5 5 5 5 0 0 0-5-5zm0 8a3 3 0 1 1 3-3 3 3 0 0 1-3 3z" data-name="Layer 51" fill="#ffffff" opacity="1" data-original="#000000" class=""></path></g></svg>